<?xml version="1.0" encoding="utf-8"?>
<!-- Generator: Adobe Illustrator 21.0.0, SVG Export Plug-In . SVG Version: 6.00 Build 0)  -->
<svg version="1.1" id="vanilla" xmlns="http://www.w3.org/2000/svg" xmlns:xlink="http://www.w3.org/1999/xlink" x="0px" y="0px"
	 viewBox="0 0 453 296" style="enable-background:new 0 0 453 296;" xml:space="preserve">
<style type="text/css">
	.st0{fill:none;stroke:#FFFFFF;stroke-width:2;stroke-miterlimit:10;}
	.st1{fill:none;stroke:#FFFFFF;stroke-width:2;stroke-linejoin:round;stroke-miterlimit:10;}
	.st2{enable-background:new    ;}
	.st3{fill:#FFFFFF;}

	<defs>
	<style>

		.st0{
		stroke-dasharray:2000;
		stroke-dashoffset:0;
		-webkit-animation: dash 4s linear forwards;
		-o-animation: dash 4s linear forwards;
		-moz-animation: dash 4s linear forwards;
		-ms-animation: dash 4s linear forwards;
		animation: dash 4s linear forwards;

		}
		@-webkit-keyframes dash{
			from {
			stroke-dashoffset:2000;
			}
			to{
			stroke.dashoffset:0;
			}
		}
				.st1{
		stroke-dasharray:2000;
		stroke-dashoffset:0;
		-webkit-animation: dash 4s linear forwards;
		-o-animation: dash 4s linear forwards;
		-moz-animation: dash 4s linear forwards;
		-ms-animation: dash 4s linear forwards;
		animation: dash 4s linear forwards;
		}
		@-webkit-keyframe dash{
			from {
			stroke-dashoffset:2000;
			}
			to{
			stroke.dashoffset:0;
			}
		}

	</style>
</defs>
</style>
<polygon class="st0" points="226.6,280.5 441.6,171.5 442.6,97.5 347.6,9.5 103.6,9.5 11.6,97.5 12.6,171.5 "/>
<polygon class="st1" points="225.5,97.5 103.5,9.5 11.5,97.5 442.5,97.5 347.5,9.5 "/>
<g class="st2">
	<path class="st3" d="M33.6,149.2h0.1l4.8-33.1h5.9l-6.3,40.6h-9.5l-6.3-40.6h6.4L33.6,149.2z"/>
	<path class="st3" d="M69.2,156.7h-6.4l-1.1-7.4h-7.8l-1.1,7.4h-5.9l6.5-40.6h9.3L69.2,156.7z M54.6,143.8h6.1l-3-20.5h-0.1
		L54.6,143.8z"/>
	<path class="st3" d="M80.6,127.3h-0.1v29.4h-5.7v-40.6h8l6.4,24.3h0.1v-24.3H95v40.6h-6.6L80.6,127.3z"/>
	<path class="st3" d="M102.2,116.1h6.4v40.6h-6.4V116.1z"/>
	<path class="st3" d="M115.9,116.1h6.4v34.8h10.5v5.8h-16.9V116.1z"/>
	<path class="st3" d="M138.3,116.1h6.4v34.8h10.5v5.8h-16.9V116.1z"/>
	<path class="st3" d="M181.2,156.7h-6.4l-1.1-7.4h-7.8l-1.1,7.4h-5.9l6.5-40.6h9.3L181.2,156.7z M166.7,143.8h6.1l-3-20.5h-0.1
		L166.7,143.8z"/>
	<path class="st3" d="M212.7,135.1h-0.1l-2.3,21.6h-8.8l-4.5-40.6h6.2l3.4,32h0.1l3-32h6.1l3.1,32.2h0.1l3.2-32.2h5.6l-4.5,40.6H215
		L212.7,135.1z"/>
	<path class="st3" d="M240.2,133.2h8.8v5.8h-8.8v11.9h11v5.8h-17.4v-40.6h17.4v5.8h-11V133.2z"/>
	<path class="st3" d="M276.9,125.4v1.5c0,4.2-1.3,6.8-4.1,8.1v0.1c3.4,1.3,4.8,4.3,4.8,8.6v3.3c0,6.3-3.3,9.6-9.7,9.6h-10v-40.6h9.6
		C274.1,116.1,276.9,119.2,276.9,125.4z M264.2,121.9v10.7h2.5c2.4,0,3.8-1,3.8-4.3v-2.3c0-2.9-1-4.2-3.2-4.2H264.2z M264.2,138.4
		v12.5h3.7c2.1,0,3.3-1,3.3-4v-3.5c0-3.8-1.2-4.9-4.1-4.9H264.2z"/>
	<path class="st3" d="M295.7,116.1h10.1c6.4,0,9.5,3.5,9.5,10v20.5c0,6.5-3.1,10-9.5,10h-10.1V116.1z M302.1,121.9v29h3.6
		c2,0,3.2-1,3.2-3.9v-21.1c0-2.9-1.2-3.9-3.2-3.9H302.1z"/>
	<path class="st3" d="M328.4,133.2h8.8v5.8h-8.8v11.9h11v5.8h-17.4v-40.6h17.4v5.8h-11V133.2z"/>
	<path class="st3" d="M354.7,115.6c6.2,0,9.4,3.7,9.4,10.2v1.3h-6v-1.7c0-2.9-1.2-4-3.2-4s-3.2,1.1-3.2,4c0,3,1.3,5.2,5.5,8.8
		c5.3,4.7,7,8.1,7,12.7c0,6.5-3.2,10.2-9.5,10.2s-9.5-3.7-9.5-10.2v-2.5h6v2.9c0,2.9,1.3,3.9,3.3,3.9s3.3-1,3.3-3.9
		c0-3-1.3-5.2-5.5-8.8c-5.3-4.7-7-8.1-7-12.7C345.3,119.3,348.4,115.6,354.7,115.6z"/>
	<path class="st3" d="M370.4,116.1h6.4v40.6h-6.4V116.1z"/>
	<path class="st3" d="M393.7,134.1h8.9v12.9c0,6.5-3.2,10.2-9.5,10.2c-6.3,0-9.5-3.7-9.5-10.2v-21.1c0-6.5,3.2-10.2,9.5-10.2
		c6.3,0,9.5,3.7,9.5,10.2v3.9h-6v-4.4c0-2.9-1.3-4-3.3-4c-2,0-3.3,1.1-3.3,4v21.9c0,2.9,1.3,3.9,3.3,3.9c2,0,3.3-1,3.3-3.9v-7.5
		h-2.9V134.1z"/>
	<path class="st3" d="M415.2,127.3h-0.1v29.4h-5.7v-40.6h8l6.4,24.3h0.1v-24.3h5.7v40.6H423L415.2,127.3z"/>
</g>
<line class="st0" x1="12.8" y1="171.5" x2="441.8" y2="172"/>
</svg>
