<?xml version="1.0" encoding="utf-8"?>
<!-- Generator: Adobe Illustrator 21.0.0, SVG Export Plug-In . SVG Version: 6.00 Build 0)  -->
<svg version="1.1" id="vanilla" xmlns="http://www.w3.org/2000/svg" xmlns:xlink="http://www.w3.org/1999/xlink" x="0px" y="0px"
	 viewBox="0 0 434 272.6" style="enable-background:new 0 0 434 272.6;" xml:space="preserve">
<style type="text/css">
	.st0{fill:none;stroke:#000000;stroke-width:2;stroke-miterlimit:10;}
	.st1{stroke:#000000;stroke-width:3;stroke-linejoin:round;stroke-miterlimit:10;}
	.st2{stroke:#000000;stroke-linejoin:bevel;stroke-miterlimit:10;}
</style>
<polygon class="st0" points="216.8,271.5 431.8,162.7 432.8,88.8 337.8,1 93.8,1 1.8,88.8 2.8,162.7 "/>
<polygon class="st1" points="216.1,90.5 94.7,2 3.2,90.5 432.1,90.5 337.5,2 "/>
<g>
	<path d="M25.6,142.4h0.1l4.4-30.3h5.4l-5.8,37.1H21l-5.7-37.1h5.9L25.6,142.4z"/>
	<path d="M59.8,149.2h-5.9l-1-6.7h-7.2l-1,6.7h-5.4l5.9-37.1h8.6L59.8,149.2z M46.5,137.4H52l-2.8-18.8h-0.1L46.5,137.4z"/>
	<path d="M71.8,122.3L71.8,122.3l-0.1,26.9h-5.2v-37.1h7.3l5.9,22.2h0.1v-22.2H85v37.1h-6L71.8,122.3z"/>
	<path d="M93.1,112.1h5.8v37.1h-5.8V112.1z"/>
	<path d="M107.1,112.1h5.8v31.8h9.6v5.3h-15.4V112.1L107.1,112.1z"/>
	<path d="M129.1,112.1h5.8v31.8h9.6v5.3h-15.4L129.1,112.1L129.1,112.1z"/>
	<path d="M169.9,149.2H164l-1-6.7h-7.2l-1,6.7h-5.4l5.9-37.1h8.5L169.9,149.2z M156.6,137.4h5.6l-2.8-18.8h-0.1L156.6,137.4z"/>
	<path d="M201.6,129.4h-0.1l-2.1,19.8h-8l-4.1-37.1h5.7l3.1,29.3h0.1l2.8-29.3h5.6l2.9,29.5h0.1l3-29.5h5.1l-4.1,37.1h-7.9
		L201.6,129.4z"/>
	<path d="M228.4,127.7h8v5.3h-8v10.9h10.1v5.3h-15.9v-37.1h15.9v5.3h-10.1V127.7z"/>
	<path d="M263.5,120.6v1.3c0,3.8-1.2,6.2-3.8,7.4v0.1c3.1,1.2,4.3,4,4.3,7.9v3c0,5.7-3,8.8-8.9,8.8h-9.2V112h8.8
		C260.9,112.1,263.5,114.9,263.5,120.6z M251.9,117.4v9.8h2.3c2.2,0,3.5-1,3.5-3.9v-2.1c0-2.7-0.9-3.8-3-3.8H251.9z M251.9,132.5
		v11.4h3.3c2,0,3-0.9,3-3.7V137c0-3.4-1.1-4.5-3.8-4.5H251.9L251.9,132.5z"/>
	<path d="M283.6,112.1h9.2c5.8,0,8.7,3.2,8.7,9.2V140c0,5.9-2.9,9.2-8.7,9.2h-9.2V112.1z M289.5,117.4v26.5h3.3c1.9,0,3-1,3-3.6V121
		c0-2.6-1.1-3.6-3-3.6H289.5z"/>
	<path d="M315,127.7h8v5.3h-8v10.9h10.1v5.3h-15.9v-37.1h15.9v5.3H315V127.7z"/>
	<path d="M340.5,111.7c5.7,0,8.6,3.4,8.6,9.3v1.2h-5.5v-1.5c0-2.7-1.1-3.7-2.9-3.7c-1.9,0-2.9,1-2.9,3.7s1.2,4.7,5,8.1
		c4.9,4.3,6.4,7.4,6.4,11.6c0,5.9-3,9.3-8.7,9.3s-8.7-3.4-8.7-9.3V138h5.5v2.6c0,2.6,1.2,3.6,3,3.6c1.9,0,3-1,3-3.6
		c0-2.7-1.2-4.7-5-8.1c-4.9-4.3-6.4-7.4-6.4-11.6C332,115.1,335,111.7,340.5,111.7z"/>
	<path d="M356.5,112.1h5.8v37.1h-5.8V112.1z"/>
	<path d="M379.4,128.5h8.2v11.8c0,5.9-3,9.3-8.7,9.3s-8.7-3.4-8.7-9.3V121c0-5.9,3-9.3,8.7-9.3s8.7,3.4,8.7,9.3v3.6h-5.5v-4
		c0-2.7-1.2-3.7-3-3.7c-1.9,0-3,1-3,3.7v20c0,2.6,1.2,3.6,3,3.6s3-1,3-3.6v-6.8h-2.6L379.4,128.5L379.4,128.5z"/>
	<path d="M400.5,122.3h-0.1v26.9h-5.2v-37.1h7.3l5.9,22.2h0.1v-22.2h5.2v37.1h-6L400.5,122.3z"/>
</g>
<polygon class="st2" points="432.1,162 217.4,271.5 3.2,161.5 "/>
</svg>
