<?xml version="1.0" encoding="utf-8"?>
<!-- Generator: Adobe Illustrator 21.0.0, SVG Export Plug-In . SVG Version: 6.00 Build 0)  -->
<svg version="1.1" id="vanilla" xmlns="http://www.w3.org/2000/svg" xmlns:xlink="http://www.w3.org/1999/xlink" x="0px" y="0px"
	 viewBox="0 0 453 296" style="enable-background:new 0 0 453 296;" xml:space="preserve">
<style type="text/css">
	.st0{fill:none;stroke:#000000;stroke-width:3;stroke-miterlimit:10;}
	.st1{stroke:#000000;stroke-width:3;stroke-linejoin:round;stroke-miterlimit:10;}
	.st2{enable-background:new    ;}
	.st3{stroke:#000000;stroke-linejoin:bevel;stroke-miterlimit:10;}
</style>
<polygon class="st0" points="226.639,279 441.639,170.201 442.639,96.338 347.639,8.5 103.639,8.5 11.639,96.338 12.639,170.201 "/>
<polygon class="st1" points="226.007,98 104.573,9.5 13,98 442,98 347.441,9.5 "/>
<g class="st2">
	<path d="M30.571,149.211h0.116l4.814-33.117h5.857l-6.264,40.599h-9.512l-6.264-40.599h6.438L30.571,149.211z"/>
	<path d="M66.589,156.692h-6.438l-1.102-7.366h-7.83l-1.102,7.366H44.26l6.496-40.599h9.338L66.589,156.692z M52.031,143.816h6.148
		l-3.016-20.531h-0.116L52.031,143.816z"/>
	<path d="M78.421,127.287h-0.116v29.405h-5.742v-40.599h8.004l6.438,24.301h0.116v-24.301h5.684v40.599h-6.554L78.421,127.287z"/>
	<path d="M100.46,116.094h6.38v40.599h-6.38V116.094z"/>
	<path d="M114.554,116.094h6.38v34.799h10.498v5.8h-16.878V116.094z"/>
	<path d="M137.289,116.094h6.38v34.799h10.498v5.8h-16.878V116.094z"/>
	<path d="M180.672,156.692h-6.438l-1.102-7.366h-7.83l-1.102,7.366h-5.857l6.496-40.599h9.338L180.672,156.692z M166.114,143.816
		h6.148l-3.016-20.531h-0.116L166.114,143.816z"/>
	<path d="M212.979,135.059h-0.116l-2.262,21.634h-8.758l-4.524-40.599h6.206l3.364,32.015h0.116l3.017-32.015h6.147l3.132,32.247
		h0.116l3.248-32.247h5.567l-4.523,40.599h-8.468L212.979,135.059z"/>
	<path d="M240.876,133.203h8.758v5.8h-8.758v11.89h11.02v5.8h-17.399v-40.599h17.399v5.8h-11.02V133.203z"/>
	<path d="M277.995,125.431v1.45c0,4.176-1.275,6.786-4.117,8.12v0.116c3.422,1.334,4.756,4.35,4.756,8.642v3.306
		c0,6.264-3.307,9.628-9.687,9.628h-10.033v-40.599h9.628C275.153,116.094,277.995,119.167,277.995,125.431z M265.294,121.894
		v10.729h2.494c2.378,0,3.827-1.044,3.827-4.292v-2.262c0-2.9-0.985-4.176-3.247-4.176H265.294z M265.294,138.423v12.47h3.653
		c2.146,0,3.307-0.986,3.307-4.002v-3.538c0-3.77-1.218-4.93-4.118-4.93H265.294z"/>
	<path d="M297.599,116.094h10.092c6.38,0,9.512,3.537,9.512,10.033v20.531c0,6.496-3.132,10.034-9.512,10.034h-10.092V116.094z
		 M303.979,121.894v28.999h3.597c2.029,0,3.247-1.044,3.247-3.944v-21.111c0-2.899-1.218-3.943-3.247-3.943H303.979z"/>
	<path d="M330.717,133.203h8.758v5.8h-8.758v11.89h11.02v5.8h-17.399v-40.599h17.399v5.8h-11.02V133.203z"/>
	<path d="M357.338,115.629c6.206,0,9.396,3.712,9.396,10.208v1.276h-6.031v-1.683c0-2.899-1.16-4.002-3.19-4.002
		c-2.029,0-3.189,1.103-3.189,4.002c0,2.958,1.275,5.162,5.452,8.816c5.336,4.697,7.018,8.062,7.018,12.701
		c0,6.496-3.248,10.208-9.512,10.208s-9.512-3.712-9.512-10.208v-2.493h6.031v2.899c0,2.9,1.276,3.944,3.307,3.944
		c2.029,0,3.306-1.044,3.306-3.944c0-2.958-1.276-5.162-5.452-8.815c-5.336-4.698-7.018-8.062-7.018-12.702
		C347.942,119.341,351.132,115.629,357.338,115.629z"/>
	<path d="M373.52,116.094h6.38v40.599h-6.38V116.094z"/>
	<path d="M397.183,134.073h8.932v12.875c0,6.496-3.247,10.208-9.512,10.208c-6.264,0-9.512-3.712-9.512-10.208v-21.111
		c0-6.496,3.248-10.208,9.512-10.208c6.265,0,9.512,3.712,9.512,10.208v3.944h-6.031v-4.351c0-2.899-1.276-4.002-3.306-4.002
		c-2.03,0-3.307,1.103-3.307,4.002v21.924c0,2.9,1.276,3.944,3.307,3.944c2.029,0,3.306-1.044,3.306-3.944v-7.481h-2.9V134.073z"/>
	<path d="M419.106,127.287h-0.115v29.405h-5.742v-40.599h8.004l6.438,24.301h0.116v-24.301h5.684v40.599h-6.554L419.106,127.287z"/>
</g>
<polygon class="st3" points="442,169.505 227.375,279 13,169 "/>
</svg>
