<svg xmlns="http://www.w3.org/2000/svg" viewBox="0 0 547.56 27.5"><defs><style>.cls-1{fill:#e8e8e8;}</style></defs><title>Resurs 3</title><g id="Lager_2" data-name="Lager 2"><g id="Lager_1-2" data-name="Lager 1"><polygon class="cls-1" points="36.58 0 0 0 18.18 27.5 36.58 0"/><polygon class="cls-1" points="73.07 0 36.49 0 54.68 27.5 73.07 0"/><polygon class="cls-1" points="109.56 0 72.99 0 91.17 27.5 109.56 0"/><polygon class="cls-1" points="146.06 0 109.48 0 127.66 27.5 146.06 0"/><polygon class="cls-1" points="182.55 0 145.97 0 164.16 27.5 182.55 0"/><polygon class="cls-1" points="219.04 0 182.46 0 200.65 27.5 219.04 0"/><polygon class="cls-1" points="255.54 0 218.96 0 237.14 27.5 255.54 0"/><polygon class="cls-1" points="292.03 0 255.45 0 273.63 27.5 292.03 0"/><polygon class="cls-1" points="328.52 0 291.94 0 310.13 27.5 328.52 0"/><polygon class="cls-1" points="365.01 0 328.44 0 346.62 27.5 365.01 0"/><polygon class="cls-1" points="401.51 0 364.93 0 383.11 27.5 401.51 0"/><polygon class="cls-1" points="438 0 401.42 0 419.61 27.5 438 0"/><polygon class="cls-1" points="474.58 0 438 0 456.18 27.5 474.58 0"/><polygon class="cls-1" points="511.07 0 474.49 0 492.68 27.5 511.07 0"/><polygon class="cls-1" points="547.56 0 510.99 0 529.17 27.5 547.56 0"/></g></g></svg>